
      <svg data-logo="logo" xmlns="http://www.w3.org/2000/svg" viewBox="0 0 55 41">
        <g id="logogram" transform="translate(0, 0) rotate(0) "><path d="M35.6274 0.5C46.1209 0.5 54.6274 9.00659 54.6274 19.5V40.5C50.2092 40.5 46.6274 36.9183 46.6274 32.5V19.5C46.6274 13.4249 41.7026 8.5 35.6274 8.5H30.4263C27.7742 8.50004 25.2303 9.55339 23.355 11.4287L9.79932 24.9854C9.04923 25.7354 8.6275 26.7527 8.62744 27.8135V28.5C8.62744 30.7091 10.4183 32.5 12.6274 32.5H30.6274C30.6274 36.7801 27.2663 40.2748 23.0396 40.4893L22.6274 40.5H12.6274C6.00003 40.5 0.627441 35.1274 0.627441 28.5V27.8135C0.627504 24.631 1.89171 21.5785 4.14209 19.3281L17.6987 5.77246C21.0743 2.39685 25.6524 0.500044 30.4263 0.5H35.6274Z" fill="#ffffff"/><path d="M37.6274 12.5C40.3889 12.5 42.6274 14.7386 42.6274 17.5V40.5C38.2092 40.5 34.6274 36.9183 34.6274 32.5V20.5H31.2837L24.7482 27.0355C23.8105 27.9732 22.5387 28.5 21.2126 28.5H13.1049C12.6862 28.5 12.4765 27.9937 12.7726 27.6976L26.5063 13.9648C27.444 13.0272 28.7155 12.5 30.0415 12.5H37.6274Z" fill="#ffffff"/></g>
        <g id="logotype" transform="translate(55, 20.5)"></g>
        
      </svg>
    